<svg xmlns="http://www.w3.org/2000/svg" width="800.214" height="729.296" viewBox="0 0 800.214 729.296" xmlns:xlink="http://www.w3.org/1999/xlink" role="img" artist="Katerina Limpitsouni" source="https://undraw.co/"><g transform="translate(-592.128 -138.083)"><path d="M379.454,248.718a.979.979,0,0,1-.976-.911,34.61,34.61,0,0,0-34.423-32.07c-1.044,0-2.141.053-3.26.158a.979.979,0,0,1-.941-.488,41.124,41.124,0,0,0-75.2,8.944.975.975,0,0,1-.963.706l-.26-.008c-.135,0-.271-.009-.407-.009a29,29,0,0,0-28.263,22.9.979.979,0,0,1-.958.777H168.193a.979.979,0,1,1,0-1.959h64.822a30.98,30.98,0,0,1,29.972-23.677,43.082,43.082,0,0,1,78.252-9.19c.963-.075,1.908-.113,2.817-.113a36.574,36.574,0,0,1,36.377,33.891.979.979,0,0,1-.908,1.046Z" transform="translate(462.909 134.656)" fill="#d6d6e3"/><path d="M385.388,291.293h-160.6a.979.979,0,0,1,0-1.959h160.6a.979.979,0,0,1,0,1.959Z" transform="translate(445.324 104.637)" fill="#d6d6e3"/><path d="M257.336,311.894h-53.86a.979.979,0,1,1,0-1.959h53.86a.979.979,0,0,1,0,1.959Z" transform="translate(451.946 98.236)" fill="#d6d6e3"/><path d="M358.531,590.919c0,59.364-62.237,87.77-62.237,87.77s-62.875-28.405-64.152-87.77c-.75-34.893,28.293-63.194,63.194-63.194a63.194,63.194,0,0,1,63.194,63.194Z" transform="translate(360 103.325)" fill="#e6e6e6"/><path d="M149.119,557.851h-42.13l-5.107-20.426h52.343Z" transform="translate(528.241 227.673)" fill="#cbcbcb"/><rect width="39.257" height="20.458" transform="translate(636.666 820.457)" fill="#fff"/><path d="M315.047,732.8h-39.9V711.7h39.9Zm-39.257-.638h38.619v-19.82H275.79Z" transform="translate(361.195 108.435)" fill="#cbcbcb"/><path d="M135.661,559.721H119.567l-1.847-2.9h19.788Z" transform="translate(528.681 228.212)" fill="#cbcbcb"/><rect width="0.638" height="31.278" transform="translate(635.549 785.524)" fill="#cbcbcb"/><rect width="0.638" height="31.278" transform="translate(676.402 785.524)" fill="#cbcbcb"/><path d="M300.8,661.406l-.39-.506c18.441-14.221,40.423-38.583,40.423-73.887a62.789,62.789,0,0,0-38.4-57.934l.249-.588a63.426,63.426,0,0,1,38.791,58.522C341.467,622.577,319.35,647.1,300.8,661.406Z" transform="translate(361.897 103.346)" fill="#cbcbcb"/><path d="M280.921,661.4l-.39-.506c18.441-14.221,40.423-38.583,40.423-73.887a62.863,62.863,0,0,0-37.964-57.747l.253-.586a63.5,63.5,0,0,1,38.349,58.333C321.593,622.572,299.475,647.093,280.921,661.4Z" transform="translate(361.345 103.351)" fill="#cbcbcb"/><path d="M307.445,661.4c-18.554-14.308-40.671-38.829-40.671-74.393a63.5,63.5,0,0,1,38.35-58.333l.253.586a62.863,62.863,0,0,0-37.965,57.747c0,35.3,21.982,59.667,40.423,73.887Z" transform="translate(360.962 103.351)" fill="#cbcbcb"/><path d="M287.571,661.409C269.016,647.1,246.9,622.58,246.9,587.016a63.382,63.382,0,0,1,39.05-58.631l.246.589a62.745,62.745,0,0,0-38.658,58.042c0,35.3,21.982,59.667,40.423,73.887Z" transform="translate(360.41 103.343)" fill="#cbcbcb"/><rect width="0.638" height="134.048" transform="translate(655.017 631.05)" fill="#cbcbcb"/><line y1="11.705" x2="11.705" transform="translate(636.666 816.044)" fill="#fff"/><rect width="16.553" height="0.638" transform="translate(636.444 827.525) rotate(-45)" fill="#cbcbcb"/><line y1="18.298" x2="17.402" transform="translate(636.666 815.845)" fill="#fff"/><rect width="25.251" height="0.638" transform="translate(636.439 833.925) rotate(-46.444)" fill="#cbcbcb"/><rect width="47.874" height="5.745" transform="translate(631.719 815.845)" fill="#fff"/><path d="M318.851,713.6H270.338v-6.383h48.513Zm-47.874-.638h47.236v-5.107H270.976Z" transform="translate(361.061 108.311)" fill="#cbcbcb"/><path d="M474.56,443.958c0,39.183-41.079,57.932-41.079,57.932s-41.5-18.749-42.343-57.932c-.5-23.031,18.675-41.711,41.711-41.711a41.711,41.711,0,0,1,41.711,41.711Z" transform="translate(364.417 99.839)" fill="#e6e6e6"/><path d="M279.493,381.09H251.685l-3.37-13.482h34.549Z" transform="translate(532.309 222.956)" fill="#cbcbcb"/><rect width="25.911" height="13.503" transform="translate(784.942 627.103)" fill="#fff"/><path d="M445.858,537.6H419.525V523.68h26.333Zm-25.911-.421h25.49V524.1h-25.49Z" transform="translate(365.206 103.212)" fill="#cbcbcb"/><path d="M270.61,382.325H259.987l-1.219-1.916h13.061Z" transform="translate(532.599 223.311)" fill="#cbcbcb"/><rect width="0.421" height="20.645" transform="translate(784.204 604.046)" fill="#cbcbcb"/><rect width="0.421" height="20.645" transform="translate(811.17 604.046)" fill="#cbcbcb"/><path d="M436.452,490.483l-.257-.334c12.172-9.386,26.681-25.466,26.681-48.769a41.443,41.443,0,0,0-25.347-38.239l.164-.388a41.864,41.864,0,0,1,25.6,38.627C463.3,464.854,448.7,481.039,436.452,490.483Z" transform="translate(365.669 99.853)" fill="#cbcbcb"/><path d="M423.334,490.479l-.257-.334c12.172-9.386,26.681-25.466,26.681-48.769A41.492,41.492,0,0,0,424.7,403.261l.167-.387a41.913,41.913,0,0,1,25.312,38.5C450.179,464.85,435.58,481.035,423.334,490.479Z" transform="translate(365.305 99.856)" fill="#cbcbcb"/><path d="M440.84,490.479C428.594,481.035,414,464.85,414,441.377a41.913,41.913,0,0,1,25.312-38.5l.167.387a41.492,41.492,0,0,0-25.058,38.116c0,23.3,14.509,39.382,26.681,48.769Z" transform="translate(365.052 99.856)" fill="#cbcbcb"/><path d="M427.723,490.485c-12.247-9.444-26.845-25.629-26.845-49.1a41.835,41.835,0,0,1,25.775-38.7l.162.389a41.414,41.414,0,0,0-25.516,38.31c0,23.3,14.509,39.383,26.681,48.769Z" transform="translate(364.688 99.851)" fill="#cbcbcb"/><rect width="0.421" height="88.478" transform="translate(797.055 502.086)" fill="#cbcbcb"/><line y1="7.726" x2="7.726" transform="translate(784.942 624.191)" fill="#fff"/><rect width="10.926" height="0.421" transform="translate(784.797 631.768) rotate(-45)" fill="#cbcbcb"/><line y1="12.077" x2="11.486" transform="translate(784.942 624.059)" fill="#fff"/><rect width="16.667" height="0.421" transform="translate(784.794 635.992) rotate(-46.444)" fill="#cbcbcb"/><rect width="31.599" height="3.792" transform="translate(781.677 624.059)" fill="#fff"/><path d="M448.369,524.932h-32.02v-4.213h32.02Zm-31.6-.421h31.178V521.14H416.77Z" transform="translate(365.118 103.13)" fill="#cbcbcb"/><path d="M812,490.613a.942.942,0,0,0,.939-.876,33.308,33.308,0,0,1,33.129-30.864c1,0,2.06.051,3.137.152a.942.942,0,0,0,.906-.47,39.578,39.578,0,0,1,72.376,8.608.938.938,0,0,0,.927.68l.251-.008c.13,0,.261-.009.392-.009a27.913,27.913,0,0,1,27.2,22.039.942.942,0,0,0,.922.748h63.139a.942.942,0,0,0,0-1.885H952.932a29.815,29.815,0,0,0-28.845-22.787,41.462,41.462,0,0,0-75.31-8.845c-.927-.072-1.836-.109-2.711-.109A35.2,35.2,0,0,0,811.058,489.6a.942.942,0,0,0,.874,1.006Z" transform="translate(376.083 109.601)" fill="#d6d6e3"/><path d="M824.116,507.858H978.678a.942.942,0,0,0,0-1.885H824.116a.942.942,0,0,0,0,1.885Z" transform="translate(375.18 104.439)" fill="#d6d6e3"/><path d="M950.392,522.625h51.835a.942.942,0,1,0,0-1.885H950.392a.942.942,0,1,0,0,1.885Z" transform="translate(365.767 103.339)" fill="#d6d6e3"/><path d="M612.665,610.571a1.047,1.047,0,0,1-1.043-.973,36.991,36.991,0,0,0-36.791-34.276c-1.116,0-2.288.057-3.484.169a1.046,1.046,0,0,1-1.006-.522,43.953,43.953,0,0,0-80.378,9.56,1.042,1.042,0,0,1-1.029.755l-.278-.009c-.145,0-.289-.01-.435-.01a31,31,0,0,0-30.208,24.475,1.047,1.047,0,0,1-1.024.831h-70.12a1.047,1.047,0,1,1,0-2.093h69.282a33.111,33.111,0,0,1,32.034-25.306,46.046,46.046,0,0,1,83.636-9.823c1.03-.08,2.039-.121,3.011-.121a39.091,39.091,0,0,1,38.88,36.222,1.047,1.047,0,0,1-.971,1.118Z" transform="translate(364.27 103.963)" fill="#d6d6e3"/><path d="M599.085,622.067H427.435a1.047,1.047,0,1,1,0-2.093h171.65a1.047,1.047,0,1,1,0,2.093Z" transform="translate(365.397 105.887)" fill="#d6d6e3"/><path d="M469.725,636.833H412.16a1.047,1.047,0,1,1,0-2.093h57.566a1.047,1.047,0,1,1,0,2.093Z" transform="translate(364.972 106.297)" fill="#d6d6e3"/><g transform="translate(864.037 138.083)"><path d="M947.518,339.83c0,205.825-215.785,304.312-215.785,304.312s-218-98.486-222.424-304.312c-2.6-120.98,98.1-219.1,219.1-219.1S947.518,218.822,947.518,339.83Z" transform="translate(-509.26 -120.725)" fill="#9B9EE4"/><path d="M624.866,490.822H478.8L461.091,420h181.48Z" transform="translate(-329.357 44.767)" fill="#090814"/><path d="M574.3,492.516h-55.8l-6.4-10.063H580.7Z" transform="translate(-323.921 51.424)" fill="#090814"/><rect width="2.213" height="108.446" transform="translate(150.546 535.589)" fill="#090814"/><rect width="2.213" height="108.446" transform="translate(292.189 535.589)" fill="#090814"/><path d="M730.482,584.03l-1.351-1.753C793.067,532.972,869.283,448.5,869.283,326.1A217.7,217.7,0,0,0,736.139,125.231l.862-2.038A219.908,219.908,0,0,1,871.5,326.1C871.5,449.4,794.812,534.421,730.482,584.03Z" transform="translate(-485.824 -120.462)" fill="#090814"/><path d="M666.481,583.967l-1.351-1.753c63.937-49.305,140.153-133.773,140.153-256.179A217.956,217.956,0,0,0,673.655,125.816l.878-2.032A220.167,220.167,0,0,1,807.5,326.035C807.5,449.34,730.812,534.359,666.481,583.967Z" transform="translate(-492.646 -120.399)" fill="#090814"/><path d="M761.84,583.967C697.51,534.358,620.826,449.34,620.826,326.035A220.166,220.166,0,0,1,753.791,123.784l.878,2.032a217.955,217.955,0,0,0-131.63,200.22c0,122.406,76.215,206.874,140.152,256.179Z" transform="translate(-497.368 -120.399)" fill="#090814"/><path d="M697.84,584.066C633.51,534.458,556.826,449.44,556.826,326.134A219.756,219.756,0,0,1,692.219,122.852l.853,2.042a217.547,217.547,0,0,0-134.033,201.24c0,122.407,76.216,206.874,140.152,256.179Z" transform="translate(-504.19 -120.499)" fill="#090814"/><rect width="2.213" height="464.767" transform="translate(218.047 0)" fill="#090814"/><line y1="40.583" x2="40.583" transform="translate(154.419 641.406)" fill="#fff"/><rect width="165.988" height="19.919" transform="translate(137.267 640.715)" fill="#fff"/><g transform="translate(135.823 639.912)"><path d="M0,0H146.918V71.983H0Z" transform="translate(11.066 17.402)" fill="#e6e6e6"/><path d="M0,0H168.2V21.025H0Z" fill="#e6e6e6"/></g></g></g></svg>
